<svg xmlns="http://www.w3.org/2000/svg" version="1.1" xmlns:xlink="http://www.w3.org/1999/xlink" xmlns:svgjs="http://svgjs.dev/svgjs" width="1000" height="750" viewBox="0 0 1000 750"><rect width="1000" height="750" fill="#ea9937"></rect><g transform="matrix(0.834,0,0,0.834,82.49454545454546,115.4193570850203)"><svg viewBox="0 0 396 247" data-background-color="#ea9937" preserveAspectRatio="xMidYMid meet" height="623" width="1000" xmlns="http://www.w3.org/2000/svg" xmlns:xlink="http://www.w3.org/1999/xlink"><g id="tight-bounds" transform="matrix(1,0,0,1,0.2400000000000091,-0.09999999999999432)"><svg viewBox="0 0 395.52 247.2" height="247.2" width="395.52"><g><svg></svg></g><g><svg viewBox="0 0 395.52 247.2" height="247.2" width="395.52"><g transform="matrix(1,0,0,1,99.10403626640739,47.21520000000001)"><svg viewBox="0 0 197.3119274671852 152.76959999999997" height="152.76959999999997" width="197.3119274671852"><g><svg viewBox="0 0 197.3119274671852 152.76959999999997" height="152.76959999999997" width="197.3119274671852"><g><svg viewBox="0 0 197.3119274671852 152.76959999999997" height="152.76959999999997" width="197.3119274671852"><g><svg viewBox="0 0 197.3119274671852 152.76959999999997" height="152.76959999999997" width="197.3119274671852"><g><svg viewBox="0 0 197.3119274671852 152.76959999999997" height="152.76959999999997" width="197.3119274671852" id="textblock"><g><svg viewBox="0 0 197.3119274671852 152.76959999999997" height="152.76959999999997" width="197.3119274671852"><g transform="matrix(1,0,0,1,0,0)"><svg width="197.3119274671852" viewBox="2.9800000190734863 -36.98500061035156 48.64363479614258 37.665000915527344" height="152.76959999999997" data-palette-color="#ea3c12"><path d="M51.46-9.13L51.46-9.13Q51.46-8.69 51.51-7.78 51.56-6.86 51.59-6.03 51.61-5.2 51.62-4.19 51.64-3.17 51.55-2.36 51.46-1.54 51.29-0.82 51.12-0.1 50.77 0.29 50.42 0.68 49.9 0.68L49.9 0.68 38.77 0.68Q37.6-0.22 37.6-6.05L37.6-6.05Q37.6-8.18 37.62-11.17 37.65-14.16 37.65-15.43L37.65-15.43 37.65-17.14Q37.65-17.36 37.61-17.98 37.57-18.6 37.6-18.95L37.6-18.95Q36.62-15.41 35.21-8.81 33.79-2.22 33.25 0L33.25 0Q33.01 0.68 31.01 0.68L31.01 0.68 22.36 0.68Q20.78 0.68 20.51-0.15L20.51-0.15 18.16-10.35Q17.85-11.91 17.47-13.6 17.09-15.28 16.58-17.43 16.06-19.58 15.82-20.61L15.82-20.61Q15.53-12.79 15.53-8.69L15.53-8.69 15.53-4.39Q15.53-1.51 15.58-0.05L15.58-0.05Q15.43 0.49 15.04 0.49L15.04 0.49 12.74 0.49Q11.3 0.49 8.52 0.51 5.74 0.54 4.3 0.54L4.3 0.54Q2.98 0.54 2.98 0.1L2.98 0.1 2.98-36.13Q2.98-36.35 3.09-36.51 3.2-36.67 3.43-36.76 3.66-36.84 3.88-36.89 4.1-36.94 4.44-36.95 4.79-36.96 5-36.98 5.22-36.99 5.57-36.98 5.91-36.96 6.01-36.96L6.01-36.96 8.89-36.96Q15.84-36.96 18.69-36.77 21.53-36.57 23.05-36.57L23.05-36.57Q23.63-33.3 24.9-26.86L24.9-26.86 26.76-17.14 30.66-36.87Q30.66-36.87 30.86-36.82 31.05-36.77 31.15-36.77L31.15-36.77Q33.76-36.77 38.87-36.84 43.97-36.91 46.58-36.91L46.58-36.91 50.2-36.91Q50.88-36.84 50.88-35.55L50.88-35.55Q51.42-11.89 51.46-9.13Z" opacity="1" transform="matrix(1,0,0,1,0,0)" fill="#ea3c12" class="undefined-text-0" data-fill-palette-color="primary" id="text-0"></path></svg></g></svg></g></svg></g></svg></g></svg></g></svg></g></svg></g><g><path d="M0 123.6c0-68.262 55.338-123.6 123.6-123.6 30.402 0 58.24 10.976 79.768 29.183l-11.147 0c-19.26-14.022-42.974-22.294-68.621-22.295-64.458 0-116.712 52.254-116.712 116.712 0 64.458 52.254 116.712 116.712 116.712 25.647 0 49.361-8.272 68.621-22.295h11.147c-21.528 18.206-49.366 29.183-79.768 29.183-68.262 0-123.6-55.338-123.6-123.6z" fill="#ea3c12" stroke="transparent" data-fill-palette-color="tertiary"></path></g></svg></g><defs></defs></svg><rect width="395.52" height="247.2" fill="none" stroke="none" visibility="hidden"></rect></g></svg></g></svg>